# 3ds Max Wavefront OBJ Exporter v0.97b - (c)2007 guruware
# 创建的文件:26.09.2018 10:10:06

mtllib ball.mtl

#
# object GeoSphere001
#

v  0.0000 0.0000 23.0000
v  8.2968 0.0000 21.4514
v  2.5638 7.8907 21.4514
v  15.4763 0.0000 17.0142
v  11.0286 8.0128 18.5247
v  4.7824 14.7188 17.0142
v  20.5718 0.0000 10.2859
v  18.0402 7.8907 11.8865
v  13.0792 14.7188 11.8865
v  6.3570 19.5650 10.2859
v  -6.7122 4.8767 21.4514
v  -4.2126 12.9649 18.5247
v  -12.5206 9.0967 17.0142
v  -1.9298 19.5956 11.8865
v  -9.9568 16.9874 11.8865
v  -16.6430 12.0918 10.2859
v  -6.7122 -4.8767 21.4514
v  -13.6321 -0.0000 18.5247
v  -12.5206 -9.0967 17.0142
v  -19.2328 4.2200 11.8865
v  -19.2328 -4.2200 11.8865
v  -16.6430 -12.0918 10.2859
v  2.5638 -7.8907 21.4514
v  -4.2126 -12.9649 18.5247
v  4.7824 -14.7188 17.0142
v  -9.9568 -16.9874 11.8865
v  -1.9298 -19.5956 11.8865
v  6.3570 -19.5650 10.2859
v  11.0286 -8.0128 18.5247
v  13.0792 -14.7188 11.8865
v  18.0402 -7.8907 11.8865
v  22.1885 -4.8767 3.5898
v  22.1885 4.8767 3.5898
v  20.8174 -9.0967 -3.5898
v  22.6655 0.0000 -3.9085
v  20.8174 9.0967 -3.5898
v  16.6430 -12.0918 -10.2859
v  19.2328 -4.2200 -11.8865
v  19.2328 4.2200 -11.8865
v  16.6430 12.0918 -10.2859
v  11.4947 19.5956 3.5898
v  2.2186 22.6095 3.5898
v  15.0844 16.9874 -3.5898
v  7.0040 21.5562 -3.9085
v  -2.2186 22.6095 -3.5898
v  9.9568 16.9874 -11.8865
v  1.9298 19.5956 -11.8865
v  -6.3570 19.5650 -10.2859
v  -15.0844 16.9874 3.5898
v  -20.8174 9.0967 3.5898
v  -11.4947 19.5956 -3.5898
v  -18.3368 13.3224 -3.9085
v  -22.1885 4.8767 -3.5898
v  -13.0792 14.7188 -11.8865
v  -18.0402 7.8907 -11.8865
v  -20.5718 -0.0000 -10.2859
v  -20.8174 -9.0967 3.5898
v  -15.0844 -16.9874 3.5898
v  -22.1885 -4.8767 -3.5898
v  -18.3368 -13.3224 -3.9085
v  -11.4947 -19.5956 -3.5898
v  -18.0402 -7.8907 -11.8865
v  -13.0792 -14.7188 -11.8865
v  -6.3570 -19.5650 -10.2859
v  2.2186 -22.6095 3.5898
v  11.4947 -19.5956 3.5898
v  -2.2186 -22.6095 -3.5898
v  7.0040 -21.5562 -3.9085
v  15.0844 -16.9874 -3.5898
v  1.9298 -19.5956 -11.8865
v  9.9568 -16.9874 -11.8865
v  18.3368 13.3224 3.9085
v  -7.0040 21.5562 3.9085
v  -22.6655 -0.0000 3.9085
v  -7.0040 -21.5562 3.9085
v  18.3368 -13.3224 3.9085
v  0.0000 0.0000 -23.0000
v  -2.5638 7.8907 -21.4514
v  6.7122 4.8767 -21.4514
v  -4.7824 14.7188 -17.0142
v  4.2126 12.9649 -18.5247
v  12.5206 9.0967 -17.0142
v  -8.2968 -0.0000 -21.4514
v  -15.4763 -0.0000 -17.0142
v  -11.0286 8.0128 -18.5247
v  -2.5638 -7.8907 -21.4514
v  -4.7824 -14.7188 -17.0142
v  -11.0286 -8.0128 -18.5247
v  6.7122 -4.8767 -21.4514
v  12.5206 -9.0967 -17.0142
v  4.2126 -12.9649 -18.5247
v  13.6321 0.0000 -18.5247
# 92 vertices

vn 0.0000 0.0000 1.0000
vn 0.3585 0.0000 0.9335
vn 0.1108 0.3410 0.9335
vn 0.6742 -0.0000 0.7385
vn 0.4841 0.3517 0.8012
vn 0.2083 0.6412 0.7385
vn 0.8944 -0.0000 0.4472
vn 0.7833 0.3452 0.5170
vn 0.5703 0.6383 0.5170
vn 0.2764 0.8507 0.4472
vn -0.2900 0.2107 0.9335
vn -0.1849 0.5691 0.8012
vn -0.5455 0.3963 0.7385
vn -0.0862 0.8516 0.5170
vn -0.4308 0.7396 0.5170
vn -0.7236 0.5257 0.4472
vn -0.2900 -0.2107 0.9335
vn -0.5983 -0.0000 0.8012
vn -0.5455 -0.3963 0.7385
vn -0.8366 0.1812 0.5170
vn -0.8366 -0.1812 0.5170
vn -0.7236 -0.5257 0.4472
vn 0.1108 -0.3410 0.9335
vn -0.1849 -0.5691 0.8012
vn 0.2083 -0.6412 0.7385
vn -0.4308 -0.7396 0.5170
vn -0.0862 -0.8516 0.5170
vn 0.2764 -0.8507 0.4472
vn 0.4841 -0.3517 0.8012
vn 0.5703 -0.6383 0.5170
vn 0.7833 -0.3452 0.5170
vn 0.9639 -0.2132 0.1594
vn 0.9639 0.2132 0.1594
vn 0.9052 -0.3941 -0.1594
vn 0.9842 0.0000 -0.1768
vn 0.9052 0.3941 -0.1594
vn 0.7236 -0.5257 -0.4472
vn 0.8366 -0.1812 -0.5170
vn 0.8366 0.1812 -0.5170
vn 0.7236 0.5257 -0.4472
vn 0.5007 0.8509 0.1594
vn 0.0951 0.9826 0.1594
vn 0.6545 0.7391 -0.1594
vn 0.3041 0.9361 -0.1768
vn -0.0951 0.9826 -0.1594
vn 0.4308 0.7396 -0.5170
vn 0.0862 0.8516 -0.5170
vn -0.2764 0.8507 -0.4472
vn -0.6545 0.7391 0.1594
vn -0.9052 0.3941 0.1594
vn -0.5007 0.8509 -0.1594
vn -0.7963 0.5785 -0.1768
vn -0.9639 0.2132 -0.1594
vn -0.5703 0.6383 -0.5170
vn -0.7833 0.3452 -0.5170
vn -0.8944 -0.0000 -0.4472
vn -0.9052 -0.3941 0.1594
vn -0.6545 -0.7391 0.1594
vn -0.9639 -0.2132 -0.1594
vn -0.7963 -0.5785 -0.1768
vn -0.5007 -0.8509 -0.1594
vn -0.7833 -0.3452 -0.5170
vn -0.5703 -0.6383 -0.5170
vn -0.2764 -0.8507 -0.4472
vn 0.0951 -0.9826 0.1594
vn 0.5007 -0.8509 0.1594
vn -0.0951 -0.9826 -0.1594
vn 0.3041 -0.9361 -0.1768
vn 0.6545 -0.7391 -0.1594
vn 0.0862 -0.8516 -0.5170
vn 0.4308 -0.7396 -0.5170
vn 0.7963 0.5785 0.1768
vn -0.3041 0.9361 0.1768
vn -0.9842 -0.0000 0.1768
vn -0.3041 -0.9361 0.1768
vn 0.7963 -0.5785 0.1768
vn -0.0000 0.0000 -1.0000
vn -0.1108 0.3410 -0.9335
vn 0.2900 0.2107 -0.9335
vn -0.2083 0.6412 -0.7385
vn 0.1849 0.5691 -0.8012
vn 0.5455 0.3963 -0.7385
vn -0.3585 0.0000 -0.9335
vn -0.6742 -0.0000 -0.7385
vn -0.4841 0.3517 -0.8012
vn -0.1108 -0.3410 -0.9335
vn -0.2083 -0.6412 -0.7385
vn -0.4841 -0.3517 -0.8012
vn 0.2900 -0.2107 -0.9335
vn 0.5455 -0.3963 -0.7385
vn 0.1849 -0.5691 -0.8012
vn 0.5983 0.0000 -0.8012
# 92 vertex normals

vt 0.6000 1.0000 23.0000
vt 0.5000 0.8825 23.0000
vt 0.7000 0.8825 23.0000
vt 0.5000 0.7651 23.0000
vt 0.6000 0.7981 23.0000
vt 0.7000 0.7651 23.0000
vt 0.5000 0.6476 23.0000
vt 0.5656 0.6729 23.0000
vt 0.6344 0.6729 23.0000
vt 0.7000 0.6476 23.0000
vt 0.8000 1.0000 23.0000
vt 0.9000 0.8825 23.0000
vt 0.8000 0.7981 23.0000
vt 0.9000 0.7651 23.0000
vt 0.7656 0.6729 23.0000
vt 0.8344 0.6729 23.0000
vt 0.9000 0.6476 23.0000
vt 0.0000 1.0000 23.0000
vt -0.1000 0.8825 23.0000
vt 0.1000 0.8825 23.0000
vt -0.1000 0.7651 23.0000
vt 0.0000 0.7981 23.0000
vt 0.1000 0.7651 23.0000
vt 0.9656 0.6729 23.0000
vt -0.0344 0.6729 23.0000
vt 0.0344 0.6729 23.0000
vt 0.1000 0.6476 23.0000
vt 0.2000 1.0000 23.0000
vt 0.3000 0.8825 23.0000
vt 0.2000 0.7981 23.0000
vt 0.3000 0.7651 23.0000
vt 0.1656 0.6729 23.0000
vt 0.2344 0.6729 23.0000
vt 0.3000 0.6476 23.0000
vt 0.4000 1.0000 23.0000
vt 0.4000 0.7981 23.0000
vt 0.3656 0.6729 23.0000
vt 0.4344 0.6729 23.0000
vt 0.4656 0.5499 23.0000
vt 0.5344 0.5499 23.0000
vt 0.4344 0.4501 23.0000
vt 0.5000 0.4456 23.0000
vt 0.5656 0.4501 23.0000
vt 0.4000 0.3524 23.0000
vt 0.4656 0.3271 23.0000
vt 0.5344 0.3271 23.0000
vt 0.6000 0.3524 23.0000
vt 0.6656 0.5499 23.0000
vt 0.7344 0.5499 23.0000
vt 0.6344 0.4501 23.0000
vt 0.7000 0.4456 23.0000
vt 0.7656 0.4501 23.0000
vt 0.6656 0.3271 23.0000
vt 0.7344 0.3271 23.0000
vt 0.8000 0.3524 23.0000
vt 0.8656 0.5499 23.0000
vt 0.9344 0.5499 23.0000
vt 0.8344 0.4501 23.0000
vt 0.9000 0.4456 23.0000
vt 0.9656 0.4501 23.0000
vt 0.8656 0.3271 23.0000
vt 0.9344 0.3271 23.0000
vt -0.0344 0.4501 23.0000
vt -0.0656 0.3271 23.0000
vt 0.0000 0.3524 23.0000
vt 0.0656 0.5499 23.0000
vt 0.1344 0.5499 23.0000
vt 0.0344 0.4501 23.0000
vt 0.1000 0.4456 23.0000
vt 0.1656 0.4501 23.0000
vt 0.0656 0.3271 23.0000
vt 0.1344 0.3271 23.0000
vt 0.2000 0.3524 23.0000
vt 0.2656 0.5499 23.0000
vt 0.3344 0.5499 23.0000
vt 0.2344 0.4501 23.0000
vt 0.3000 0.4456 23.0000
vt 0.3656 0.4501 23.0000
vt 0.2656 0.3271 23.0000
vt 0.3344 0.3271 23.0000
vt 0.6000 0.5544 23.0000
vt 0.8000 0.5544 23.0000
vt 0.0000 0.5544 23.0000
vt -0.0656 0.5499 23.0000
vt 0.2000 0.5544 23.0000
vt 0.4000 0.5544 23.0000
vt 0.7000 0.0000 23.0000
vt 0.8000 0.1175 23.0000
vt 0.6000 0.1175 23.0000
vt 0.8000 0.2349 23.0000
vt 0.7000 0.2019 23.0000
vt 0.6000 0.2349 23.0000
vt -0.1000 0.0000 23.0000
vt 0.0000 0.1175 23.0000
vt -0.2000 0.1175 23.0000
vt 0.0000 0.2349 23.0000
vt -0.1000 0.2019 23.0000
vt 0.9000 0.2019 23.0000
vt 0.1000 0.0000 23.0000
vt 0.2000 0.1175 23.0000
vt 0.2000 0.2349 23.0000
vt 0.1000 0.2019 23.0000
vt 0.3000 0.0000 23.0000
vt 0.4000 0.1175 23.0000
vt 0.4000 0.2349 23.0000
vt 0.3000 0.2019 23.0000
vt 0.5000 0.0000 23.0000
vt 0.5000 0.2019 23.0000
# 108 texture coords

o GeoSphere001
g GeoSphere001
usemtl wire_177088027
s 1
f 1/1/1 2/2/2 3/3/3 
f 2/2/2 4/4/4 5/5/5 
f 2/2/2 5/5/5 3/3/3 
f 3/3/3 5/5/5 6/6/6 
f 4/4/4 7/7/7 8/8/8 
f 4/4/4 8/8/8 5/5/5 
f 5/5/5 8/8/8 9/9/9 
f 5/5/5 9/9/9 6/6/6 
f 6/6/6 9/9/9 10/10/10 
f 1/11/1 3/3/3 11/12/11 
f 3/3/3 6/6/6 12/13/12 
f 3/3/3 12/13/12 11/12/11 
f 11/12/11 12/13/12 13/14/13 
f 6/6/6 10/10/10 14/15/14 
f 6/6/6 14/15/14 12/13/12 
f 12/13/12 14/15/14 15/16/15 
f 12/13/12 15/16/15 13/14/13 
f 13/14/13 15/16/15 16/17/16 
f 1/18/1 11/19/11 17/20/17 
f 11/19/11 13/21/13 18/22/18 
f 11/19/11 18/22/18 17/20/17 
f 17/20/17 18/22/18 19/23/19 
f 13/14/13 16/17/16 20/24/20 
f 13/21/13 20/25/20 18/22/18 
f 18/22/18 20/25/20 21/26/21 
f 18/22/18 21/26/21 19/23/19 
f 19/23/19 21/26/21 22/27/22 
f 1/28/1 17/20/17 23/29/23 
f 17/20/17 19/23/19 24/30/24 
f 17/20/17 24/30/24 23/29/23 
f 23/29/23 24/30/24 25/31/25 
f 19/23/19 22/27/22 26/32/26 
f 19/23/19 26/32/26 24/30/24 
f 24/30/24 26/32/26 27/33/27 
f 24/30/24 27/33/27 25/31/25 
f 25/31/25 27/33/27 28/34/28 
f 1/35/1 23/29/23 2/2/2 
f 23/29/23 25/31/25 29/36/29 
f 23/29/23 29/36/29 2/2/2 
f 2/2/2 29/36/29 4/4/4 
f 25/31/25 28/34/28 30/37/30 
f 25/31/25 30/37/30 29/36/29 
f 29/36/29 30/37/30 31/38/31 
f 29/36/29 31/38/31 4/4/4 
f 4/4/4 31/38/31 7/7/7 
f 7/7/7 32/39/32 33/40/33 
f 32/39/32 34/41/34 35/42/35 
f 32/39/32 35/42/35 33/40/33 
f 33/40/33 35/42/35 36/43/36 
f 34/41/34 37/44/37 38/45/38 
f 34/41/34 38/45/38 35/42/35 
f 35/42/35 38/45/38 39/46/39 
f 35/42/35 39/46/39 36/43/36 
f 36/43/36 39/46/39 40/47/40 
f 10/10/10 41/48/41 42/49/42 
f 41/48/41 43/50/43 44/51/44 
f 41/48/41 44/51/44 42/49/42 
f 42/49/42 44/51/44 45/52/45 
f 43/50/43 40/47/40 46/53/46 
f 43/50/43 46/53/46 44/51/44 
f 44/51/44 46/53/46 47/54/47 
f 44/51/44 47/54/47 45/52/45 
f 45/52/45 47/54/47 48/55/48 
f 16/17/16 49/56/49 50/57/50 
f 49/56/49 51/58/51 52/59/52 
f 49/56/49 52/59/52 50/57/50 
f 50/57/50 52/59/52 53/60/53 
f 51/58/51 48/55/48 54/61/54 
f 51/58/51 54/61/54 52/59/52 
f 52/59/52 54/61/54 55/62/55 
f 52/59/52 55/62/55 53/60/53 
f 53/63/53 55/64/55 56/65/56 
f 22/27/22 57/66/57 58/67/58 
f 57/66/57 59/68/59 60/69/60 
f 57/66/57 60/69/60 58/67/58 
f 58/67/58 60/69/60 61/70/61 
f 59/68/59 56/65/56 62/71/62 
f 59/68/59 62/71/62 60/69/60 
f 60/69/60 62/71/62 63/72/63 
f 60/69/60 63/72/63 61/70/61 
f 61/70/61 63/72/63 64/73/64 
f 28/34/28 65/74/65 66/75/66 
f 65/74/65 67/76/67 68/77/68 
f 65/74/65 68/77/68 66/75/66 
f 66/75/66 68/77/68 69/78/69 
f 67/76/67 64/73/64 70/79/70 
f 67/76/67 70/79/70 68/77/68 
f 68/77/68 70/79/70 71/80/71 
f 68/77/68 71/80/71 69/78/69 
f 69/78/69 71/80/71 37/44/37 
f 40/47/40 43/50/43 36/43/36 
f 43/50/43 41/48/41 72/81/72 
f 43/50/43 72/81/72 36/43/36 
f 36/43/36 72/81/72 33/40/33 
f 41/48/41 10/10/10 9/9/9 
f 41/48/41 9/9/9 72/81/72 
f 72/81/72 9/9/9 8/8/8 
f 72/81/72 8/8/8 33/40/33 
f 33/40/33 8/8/8 7/7/7 
f 48/55/48 51/58/51 45/52/45 
f 51/58/51 49/56/49 73/82/73 
f 51/58/51 73/82/73 45/52/45 
f 45/52/45 73/82/73 42/49/42 
f 49/56/49 16/17/16 15/16/15 
f 49/56/49 15/16/15 73/82/73 
f 73/82/73 15/16/15 14/15/14 
f 73/82/73 14/15/14 42/49/42 
f 42/49/42 14/15/14 10/10/10 
f 56/65/56 59/68/59 53/63/53 
f 59/68/59 57/66/57 74/83/74 
f 59/68/59 74/83/74 53/63/53 
f 53/63/53 74/83/74 50/84/50 
f 57/66/57 22/27/22 21/26/21 
f 57/66/57 21/26/21 74/83/74 
f 74/83/74 21/26/21 20/25/20 
f 74/83/74 20/25/20 50/84/50 
f 50/57/50 20/24/20 16/17/16 
f 64/73/64 67/76/67 61/70/61 
f 67/76/67 65/74/65 75/85/75 
f 67/76/67 75/85/75 61/70/61 
f 61/70/61 75/85/75 58/67/58 
f 65/74/65 28/34/28 27/33/27 
f 65/74/65 27/33/27 75/85/75 
f 75/85/75 27/33/27 26/32/26 
f 75/85/75 26/32/26 58/67/58 
f 58/67/58 26/32/26 22/27/22 
f 37/44/37 34/41/34 69/78/69 
f 34/41/34 32/39/32 76/86/76 
f 34/41/34 76/86/76 69/78/69 
f 69/78/69 76/86/76 66/75/66 
f 32/39/32 7/7/7 31/38/31 
f 32/39/32 31/38/31 76/86/76 
f 76/86/76 31/38/31 30/37/30 
f 76/86/76 30/37/30 66/75/66 
f 66/75/66 30/37/30 28/34/28 
f 77/87/77 78/88/78 79/89/79 
f 78/88/78 80/90/80 81/91/81 
f 78/88/78 81/91/81 79/89/79 
f 79/89/79 81/91/81 82/92/82 
f 80/90/80 48/55/48 47/54/47 
f 80/90/80 47/54/47 81/91/81 
f 81/91/81 47/54/47 46/53/46 
f 81/91/81 46/53/46 82/92/82 
f 82/92/82 46/53/46 40/47/40 
f 77/93/77 83/94/83 78/95/78 
f 83/94/83 84/96/84 85/97/85 
f 83/94/83 85/97/85 78/95/78 
f 78/88/78 85/98/85 80/90/80 
f 84/96/84 56/65/56 55/64/55 
f 84/96/84 55/64/55 85/97/85 
f 85/98/85 55/62/55 54/61/54 
f 85/98/85 54/61/54 80/90/80 
f 80/90/80 54/61/54 48/55/48 
f 77/99/77 86/100/86 83/94/83 
f 86/100/86 87/101/87 88/102/88 
f 86/100/86 88/102/88 83/94/83 
f 83/94/83 88/102/88 84/96/84 
f 87/101/87 64/73/64 63/72/63 
f 87/101/87 63/72/63 88/102/88 
f 88/102/88 63/72/63 62/71/62 
f 88/102/88 62/71/62 84/96/84 
f 84/96/84 62/71/62 56/65/56 
f 77/103/77 89/104/89 86/100/86 
f 89/104/89 90/105/90 91/106/91 
f 89/104/89 91/106/91 86/100/86 
f 86/100/86 91/106/91 87/101/87 
f 90/105/90 37/44/37 71/80/71 
f 90/105/90 71/80/71 91/106/91 
f 91/106/91 71/80/71 70/79/70 
f 91/106/91 70/79/70 87/101/87 
f 87/101/87 70/79/70 64/73/64 
f 77/107/77 79/89/79 89/104/89 
f 79/89/79 82/92/82 92/108/92 
f 79/89/79 92/108/92 89/104/89 
f 89/104/89 92/108/92 90/105/90 
f 82/92/82 40/47/40 39/46/39 
f 82/92/82 39/46/39 92/108/92 
f 92/108/92 39/46/39 38/45/38 
f 92/108/92 38/45/38 90/105/90 
f 90/105/90 38/45/38 37/44/37 
# 180 faces

