# 3ds Max Wavefront OBJ Exporter v0.97b - (c)2007 guruware
# ´´½¨µÄÎÄ¼ş:22.10.2018 18:14:44

mtllib paster_edge.mtl

#
# object Àâ¿éÌùÖ½
#

v  6.7566 -6.4635 0.0000
v  5.3300 -7.5000 0.0000
v  6.8300 -6.0000 0.0000
v  -4.6195 -7.5000 0.0000
v  -7.4451 -4.6804 0.0000
v  -7.1921 -5.3780 0.0000
v  -6.8967 -6.0585 0.0000
v  -6.5977 -6.5408 0.0000
v  -6.1983 -6.9440 0.0000
v  -5.7187 -7.2476 0.0000
v  -5.1834 -7.4361 0.0000
v  6.5435 -6.8817 0.0000
v  6.2117 -7.2135 0.0000
v  5.7935 -7.4266 0.0000
v  -7.8299 -3.2479 0.0000
v  -8.0559 -1.7819 0.0000
v  -8.1300 -0.3004 0.0000
v  -8.1300 0.3004 0.0000
v  6.8300 6.0000 0.0000
v  -8.0559 1.7819 0.0000
v  -7.8299 3.2479 0.0000
v  -7.4451 4.6804 0.0000
v  -4.6195 7.5000 0.0000
v  5.3300 7.5000 0.0000
v  -7.1921 5.3780 0.0000
v  -6.8967 6.0585 0.0000
v  -6.5977 6.5408 0.0000
v  -6.1983 6.9440 0.0000
v  -5.7187 7.2476 0.0000
v  -5.1834 7.4361 0.0000
v  5.7935 7.4266 0.0000
v  6.2117 7.2135 0.0000
v  6.5435 6.8817 0.0000
v  6.7566 6.4635 0.0000
v  5.3300 -7.5000 0.1000
v  5.7935 -7.4266 0.1000
v  6.2117 -7.2135 0.1000
v  6.5435 -6.8817 0.1000
v  6.7566 -6.4635 0.1000
v  6.8300 -6.0000 0.1000
v  -4.6195 -7.5000 0.1000
v  -5.1834 -7.4361 0.1000
v  -5.7187 -7.2476 0.1000
v  -6.1983 -6.9440 0.1000
v  -6.5977 -6.5408 0.1000
v  -6.8967 -6.0585 0.1000
v  -7.4451 -4.6804 0.1000
v  -7.1921 -5.3780 0.1000
v  6.8300 6.0000 0.1000
v  -8.1300 0.3004 0.1000
v  -8.1300 -0.3004 0.1000
v  -8.0559 -1.7819 0.1000
v  6.7566 6.4635 0.1000
v  5.3300 7.5000 0.1000
v  -4.6195 7.5000 0.1000
v  -7.4451 4.6804 0.1000
v  -7.1921 5.3780 0.1000
v  -6.8967 6.0585 0.1000
v  -6.5977 6.5408 0.1000
v  -6.1983 6.9440 0.1000
v  -5.7187 7.2476 0.1000
v  -5.1834 7.4361 0.1000
v  6.5435 6.8817 0.1000
v  6.2117 7.2135 0.1000
v  5.7935 7.4266 0.1000
v  -7.8299 3.2479 0.1000
v  -8.0559 1.7819 0.1000
v  -7.8299 -3.2479 0.1000
# 68 vertices

vn 0.0000 0.0000 -2.5400
vn 0.0000 -2.5400 0.0000
vn 0.7849 -2.4157 0.0000
vn 1.4930 -2.0549 0.0000
vn 2.0549 -1.4930 0.0000
vn 2.4157 -0.7849 0.0000
vn 2.5400 0.0000 0.0000
vn -0.5685 -2.4756 0.0000
vn -1.1082 -2.2855 0.0000
vn -1.5916 -1.9795 0.0000
vn -1.9943 -1.5730 0.0000
vn -2.2958 -1.0867 0.0000
vn 0.0000 0.0000 2.5400
vn -2.3608 -0.9372 0.0000
vn -2.4121 -0.7959 0.0000
vn -2.4858 -0.5219 0.0000
vn -2.5274 -0.2526 0.0000
vn -2.5400 -0.0074 0.0000
vn -2.5400 0.0000 0.0000
vn -2.2958 1.0867 0.0000
vn -2.3608 0.9372 0.0000
vn -2.4121 0.7959 0.0000
vn -2.4858 0.5219 0.0000
vn -2.5274 0.2526 0.0000
vn -2.5400 0.0074 0.0000
vn -1.9943 1.5730 0.0000
vn -1.5916 1.9795 0.0000
vn -1.1082 2.2855 0.0000
vn -0.5685 2.4756 0.0000
vn 0.0000 2.5400 0.0000
vn 0.7849 2.4157 0.0000
vn 1.4930 2.0549 0.0000
vn 2.0549 1.4930 0.0000
vn 2.4157 0.7849 0.0000
# 34 vertex normals

vt -2.5417 -0.6464 0.0000
vt -2.3990 -0.7500 0.0000
vt -2.5490 -0.6000 0.0000
vt -1.4041 -0.7500 0.0000
vt -1.1215 -0.4680 0.0000
vt -1.1468 -0.5378 0.0000
vt -1.1763 -0.6058 0.0000
vt -1.2062 -0.6541 0.0000
vt -1.2462 -0.6944 0.0000
vt -1.2941 -0.7248 0.0000
vt -1.3477 -0.7436 0.0000
vt -2.5204 -0.6882 0.0000
vt -2.4872 -0.7214 0.0000
vt -2.4454 -0.7427 0.0000
vt -1.0830 -0.3248 0.0000
vt -1.0604 -0.1782 0.0000
vt -1.0530 -0.0300 0.0000
vt -1.0530 0.0300 0.0000
vt -2.5490 0.6000 0.0000
vt -1.0604 0.1782 0.0000
vt -1.0830 0.3248 0.0000
vt -1.1215 0.4680 0.0000
vt -1.4040 0.7500 0.0000
vt -2.3990 0.7500 0.0000
vt -1.1468 0.5378 0.0000
vt -1.1763 0.6058 0.0000
vt -1.2062 0.6541 0.0000
vt -1.2462 0.6944 0.0000
vt -1.2941 0.7248 0.0000
vt -1.3477 0.7436 0.0000
vt -2.4454 0.7427 0.0000
vt -2.4872 0.7214 0.0000
vt -2.5204 0.6882 0.0000
vt -2.5417 0.6464 0.0000
vt -0.1914 0.2356 0.0000
vt -0.1914 0.1885 0.0000
vt -0.1814 0.2356 0.0000
vt -0.1814 0.1885 0.0000
vt -0.1914 0.1414 0.0000
vt -0.1814 0.1414 0.0000
vt -0.1914 0.0942 0.0000
vt -0.1814 0.0942 0.0000
vt -0.1914 0.0471 0.0000
vt -0.1814 0.0471 0.0000
vt -0.1914 0.0000 0.0000
vt -0.1814 0.0000 0.0000
vt -0.3759 0.0000 0.0000
vt -1.3708 0.0000 0.0000
vt -0.3759 -0.0100 0.0000
vt -1.3708 -0.0100 0.0000
vt -0.0153 0.2844 0.0000
vt -0.0253 0.2844 0.0000
vt -0.0153 0.2275 0.0000
vt -0.0253 0.2275 0.0000
vt -0.0253 0.1706 0.0000
vt -0.0153 0.1706 0.0000
vt -0.0253 0.1137 0.0000
vt -0.0153 0.1137 0.0000
vt -0.0253 0.0569 0.0000
vt -0.0153 0.0569 0.0000
vt -0.0253 -0.0000 0.0000
vt -0.0153 -0.0000 0.0000
vt 2.4454 -0.7427 0.0000
vt 2.4872 -0.7214 0.0000
vt 2.3990 -0.7500 0.0000
vt 2.5204 -0.6882 0.0000
vt 2.5417 -0.6464 0.0000
vt 2.5490 -0.6000 0.0000
vt 1.4041 -0.7500 0.0000
vt 1.1215 -0.4680 0.0000
vt 1.1468 -0.5378 0.0000
vt 2.5490 0.6000 0.0000
vt 1.0530 0.0300 0.0000
vt 1.0530 -0.0300 0.0000
vt 1.0604 -0.1782 0.0000
vt 2.5417 0.6464 0.0000
vt 2.3990 0.7500 0.0000
vt 1.4040 0.7500 0.0000
vt 1.1215 0.4680 0.0000
vt 1.1468 0.5378 0.0000
vt 1.1763 0.6058 0.0000
vt 1.2062 0.6541 0.0000
vt 1.2462 0.6944 0.0000
vt 1.2941 0.7248 0.0000
vt 1.3477 0.7436 0.0000
vt 2.5204 0.6882 0.0000
vt 2.4872 0.7214 0.0000
vt 2.4454 0.7427 0.0000
vt 1.0830 0.3248 0.0000
vt 1.0604 0.1782 0.0000
vt 1.0830 -0.3248 0.0000
vt 1.1763 -0.6058 0.0000
vt 1.2062 -0.6541 0.0000
vt 1.2462 -0.6944 0.0000
vt 1.2941 -0.7248 0.0000
vt 1.3477 -0.7436 0.0000
vt 0.5995 0.0100 0.0000
vt 0.5253 0.0100 0.0000
vt 0.5995 0.0000 0.0000
vt 0.5253 0.0000 0.0000
vt 0.4511 0.0100 0.0000
vt 0.4511 0.0000 0.0000
vt 0.3027 0.0100 0.0000
vt 0.3027 0.0000 0.0000
vt 0.1543 0.0100 0.0000
vt 0.1543 0.0000 0.0000
vt 0.0059 0.0100 0.0000
vt 0.0059 0.0000 0.0000
vt 0.0000 0.0000 0.0000
vt 0.0601 0.0000 0.0000
vt 0.0000 0.0100 0.0000
vt 0.0601 0.0100 0.0000
vt 0.0801 0.0000 0.0000
vt 0.0801 0.0100 0.0000
vt 0.4511 -0.0000 0.0000
vt 0.5995 -0.0000 0.0000
vt -0.0253 -0.0569 0.0000
vt -0.0153 -0.0569 0.0000
vt -0.0253 -0.1137 0.0000
vt -0.0153 -0.1137 0.0000
vt -0.0253 -0.1706 0.0000
vt -0.0153 -0.1706 0.0000
vt -0.0253 -0.2275 0.0000
vt -0.0153 -0.2275 0.0000
vt -0.0153 -0.2844 0.0000
vt -0.0253 -0.2844 0.0000
vt -1.3161 -0.0100 0.0000
vt -0.3212 -0.0100 0.0000
vt -1.3161 0.0000 0.0000
vt -0.3212 0.0000 0.0000
vt 0.2080 0.0000 0.0000
vt 1.4080 0.0000 0.0000
vt 0.2080 0.0100 0.0000
vt 1.4080 0.0100 0.0000
# 134 texture coords

o Àâ¿éÌùÖ½
g Àâ¿éÌùÖ½
usemtl wire_154154229
s off
f 1/1/1 2/2/1 3/3/1 
f 3/3/1 2/2/1 4/4/1 
f 3/3/1 4/4/1 5/5/1 
f 5/5/1 4/4/1 6/6/1 
f 6/6/1 4/4/1 7/7/1 
f 7/7/1 4/4/1 8/8/1 
f 8/8/1 4/4/1 9/9/1 
f 9/9/1 4/4/1 10/10/1 
f 10/10/1 4/4/1 11/11/1 
f 1/1/1 12/12/1 2/2/1 
f 2/2/1 12/12/1 13/13/1 
f 2/2/1 13/13/1 14/14/1 
f 5/5/1 15/15/1 3/3/1 
f 3/3/1 15/15/1 16/16/1 
f 3/3/1 16/16/1 17/17/1 
f 17/17/1 18/18/1 3/3/1 
f 3/3/1 18/18/1 19/19/1 
f 19/19/1 18/18/1 20/20/1 
f 19/19/1 20/20/1 21/21/1 
f 21/21/1 22/22/1 19/19/1 
f 19/19/1 22/22/1 23/23/1 
f 19/19/1 23/23/1 24/24/1 
f 22/22/1 25/25/1 23/23/1 
f 23/23/1 25/25/1 26/26/1 
f 23/23/1 26/26/1 27/27/1 
f 27/27/1 28/28/1 23/23/1 
f 23/23/1 28/28/1 29/29/1 
f 23/23/1 29/29/1 30/30/1 
f 31/31/1 32/32/1 24/24/1 
f 24/24/1 32/32/1 33/33/1 
f 24/24/1 33/33/1 34/34/1 
f 34/34/1 19/19/1 24/24/1 
f 2/35/2 14/36/3 35/37/2 
f 35/37/2 14/36/3 36/38/3 
f 36/38/3 14/36/3 13/39/4 
f 36/38/3 13/39/4 37/40/4 
f 37/40/4 13/39/4 12/41/5 
f 37/40/4 12/41/5 38/42/5 
f 38/42/5 12/41/5 1/43/6 
f 38/42/5 1/43/6 39/44/6 
f 39/44/6 1/43/6 3/45/7 
f 39/44/6 3/45/7 40/46/7 
f 35/47/2 41/48/2 2/49/2 
f 2/49/2 41/48/2 4/50/2 
f 4/51/2 41/52/2 11/53/8 
f 11/53/8 41/52/2 42/54/8 
f 11/53/8 42/54/8 43/55/9 
f 11/53/8 43/55/9 10/56/9 
f 10/56/9 43/55/9 44/57/10 
f 10/56/9 44/57/10 9/58/10 
f 9/58/10 44/57/10 45/59/11 
f 9/58/10 45/59/11 8/60/11 
f 8/60/11 45/59/11 46/61/12 
f 8/60/11 46/61/12 7/62/12 
f 36/63/13 37/64/13 35/65/13 
f 35/65/13 37/64/13 38/66/13 
f 35/65/13 38/66/13 39/67/13 
f 39/67/13 40/68/13 35/65/13 
f 35/65/13 40/68/13 41/69/13 
f 41/69/13 40/68/13 47/70/13 
f 41/69/13 47/70/13 48/71/13 
f 49/72/13 50/73/13 40/68/13 
f 40/68/13 50/73/13 51/74/13 
f 40/68/13 51/74/13 52/75/13 
f 53/76/13 54/77/13 49/72/13 
f 49/72/13 54/77/13 55/78/13 
f 49/72/13 55/78/13 56/79/13 
f 56/79/13 55/78/13 57/80/13 
f 57/80/13 55/78/13 58/81/13 
f 58/81/13 55/78/13 59/82/13 
f 59/82/13 55/78/13 60/83/13 
f 60/83/13 55/78/13 61/84/13 
f 61/84/13 55/78/13 62/85/13 
f 53/76/13 63/86/13 54/77/13 
f 54/77/13 63/86/13 64/87/13 
f 54/77/13 64/87/13 65/88/13 
f 56/79/13 66/89/13 49/72/13 
f 49/72/13 66/89/13 67/90/13 
f 49/72/13 67/90/13 50/73/13 
f 52/75/13 68/91/13 40/68/13 
f 40/68/13 68/91/13 47/70/13 
f 48/71/13 46/92/13 41/69/13 
f 41/69/13 46/92/13 45/93/13 
f 41/69/13 45/93/13 44/94/13 
f 44/94/13 43/95/13 41/69/13 
f 41/69/13 43/95/13 42/96/13 
f 46/97/12 48/98/14 7/99/12 
f 7/99/12 48/98/14 6/100/14 
f 6/100/14 48/98/14 47/101/15 
f 6/100/14 47/101/15 5/102/15 
f 5/102/15 47/101/15 68/103/16 
f 5/102/15 68/103/16 15/104/16 
f 15/104/16 68/103/16 52/105/17 
f 15/104/16 52/105/17 16/106/17 
f 16/106/17 52/105/17 51/107/18 
f 16/106/17 51/107/18 17/108/18 
f 18/109/19 17/110/19 50/111/19 
f 50/111/19 17/110/19 51/112/19 
f 26/108/20 25/113/21 58/107/20 
f 58/107/20 25/113/21 57/114/21 
f 57/114/21 25/113/21 22/106/22 
f 57/114/21 22/106/22 56/105/22 
f 56/105/22 22/106/22 21/104/23 
f 56/105/22 21/104/23 66/103/23 
f 66/103/23 21/104/23 20/115/24 
f 66/103/23 20/115/24 67/101/24 
f 67/101/24 20/115/24 18/116/25 
f 67/101/24 18/116/25 50/97/25 
f 58/61/20 59/117/26 26/62/20 
f 26/62/20 59/117/26 27/118/26 
f 27/118/26 59/117/26 60/119/27 
f 27/118/26 60/119/27 28/120/27 
f 28/120/27 60/119/27 61/121/28 
f 28/120/27 61/121/28 29/122/28 
f 29/122/28 61/121/28 62/123/29 
f 29/122/28 62/123/29 30/124/29 
f 30/124/29 62/123/29 23/125/30 
f 23/125/30 62/123/29 55/126/30 
f 24/127/30 23/128/30 54/129/30 
f 54/129/30 23/128/30 55/130/30 
f 54/35/30 65/36/31 24/37/30 
f 24/37/30 65/36/31 31/38/31 
f 31/38/31 65/36/31 64/39/32 
f 31/38/31 64/39/32 32/40/32 
f 32/40/32 64/39/32 63/41/33 
f 32/40/32 63/41/33 33/42/33 
f 33/42/33 63/41/33 53/43/34 
f 33/42/33 53/43/34 34/44/34 
f 34/44/34 53/43/34 49/45/7 
f 34/44/34 49/45/7 19/46/7 
f 3/131/7 19/132/7 40/133/7 
f 40/133/7 19/132/7 49/134/7 
# 132 faces

